

<svg width="800" height="800" viewBox="0 0 120 120" xml:space="preserve" xmlns="http://www.w3.org/2000/svg"><path d="M58.3 58.2H37.5l-15.1 9c-.6.4-1.3-.2-1.2-.9l2.2-8.2h-6.7c-1.8 0-3.4-1.6-3.4-3.4v-26c0-1.8 1.6-3.4 3.4-3.4h41.6c1.8 0 3.4 1.6 3.4 3.4v26.2c0 1.9-1.5 3.3-3.4 3.3" style="fill:#a9f1df"/><path d="M48.2 82.8h27.1L95 94.5c.8.5 1.7-.3 1.6-1.1l-2.9-10.6h8.7c2.4 0 4.4-2.1 4.4-4.4V44.5c0-2.4-2.1-4.4-4.4-4.4h-54c-2.4 0-4.4 2.1-4.4 4.4v34.1c-.3 2.3 1.8 4.2 4.2 4.2" style="fill:#4480f5"/><path d="M75.3 58.1c1.9 0 3.3 1.6 3.3 3.3s-1.6 3.3-3.3 3.3c-1.9 0-3.3-1.6-3.3-3.3s1.4-3.3 3.3-3.3m13.6 0c1.9 0 3.3 1.6 3.3 3.3s-1.6 3.3-3.3 3.3c-1.9 0-3.3-1.6-3.3-3.3s1.4-3.3 3.3-3.3m-27.3 0c1.9 0 3.3 1.6 3.3 3.3s-1.6 3.3-3.3 3.3c-1.9 0-3.3-1.6-3.3-3.3s1.4-3.3 3.3-3.3" style="fill:#fff"/></svg>
